<svg xmlns="http://www.w3.org/2000/svg" xmlns:xlink="http://www.w3.org/1999/xlink" version="1.1" id="Layer_1" x="0px" y="0px" enable-background="new 0 0 1024 1024" xml:space="preserve" viewBox="227.26 263.61 571.51 326.29"><style>.logo{fill:#0e0e11}@media (prefers-color-scheme: dark){.logo{fill:#fafaf8}}</style>
<path class="logo" opacity="1.000000" stroke="none" d=" M563.539551,303.601288   C569.055969,291.610870 574.515442,280.006439 579.731567,268.293671   C581.213989,264.964905 583.136414,263.436981 586.908325,263.624207   C592.680725,263.910706 598.477844,263.699402 604.051086,263.699402   C605.132935,266.830017 603.516663,268.610168 602.671509,270.484894   C597.607056,281.718781 592.529053,292.949402 587.216003,304.066650   C585.679749,307.281250 585.952515,309.344025 588.661011,311.818817   C603.811768,325.662445 610.789917,343.507843 613.188110,363.434631   C614.026062,370.397064 613.643738,370.460236 606.515564,370.466919   C595.861328,370.476898 585.204468,370.657104 574.554871,370.972717   C570.223083,371.101105 567.628906,370.132202 567.467163,365.067322   C567.364075,361.839111 566.661621,358.445007 564.305359,355.375916   C560.979858,359.947601 559.164185,365.122711 556.915283,370.022827   C525.520386,438.429077 493.892822,506.732330 463.194519,575.450562   C458.275574,586.461670 452.781647,591.722168 440.891205,589.326172   C438.819977,588.908813 436.576752,589.584045 434.552246,588.774475   C433.382690,586.684265 434.747314,585.139526 435.462097,583.555969   C439.846497,573.842590 444.148346,564.086853 448.799622,554.501465   C450.547913,550.898682 450.444519,548.943420 446.750122,546.490417   C423.399536,530.986084 412.196625,508.532745 410.079071,481.025238   C409.818451,477.639771 411.167358,476.622772 414.333710,476.639923   C426.829071,476.707611 439.325775,476.696808 451.820557,476.571716   C454.935089,476.540558 456.015564,477.696960 456.555695,480.808014   C458.250977,490.572388 461.403259,499.778870 469.630188,508.104736   C501.105164,439.569244 532.247681,371.757690 563.539551,303.601288  z"/>
<path class="logo" opacity="1.000000" stroke="none" d=" M735.672241,366.296326   C752.952148,379.939423 769.564453,393.894989 787.077698,406.609680   C801.174622,416.844086 804.062439,437.906830 787.139771,450.648102   C767.977661,465.075439 749.276184,480.116150 730.421875,494.950439   C707.248169,513.183167 684.129456,531.485657 660.965027,549.730286   C659.315613,551.029358 657.893677,552.815491 655.406372,552.936584   C655.157898,552.521790 654.706421,552.119202 654.705444,551.715576   C654.669800,537.218384 654.735168,522.720764 654.631531,508.224274   C654.608276,504.970673 656.800232,503.573822 658.876526,501.937805   C688.844543,478.324463 718.816833,454.716553 748.781860,431.099396   C749.550598,430.493530 750.248718,429.798157 750.937439,429.182404   C750.805481,426.774963 748.819092,426.132874 747.467346,425.068268   C717.754700,401.667816 688.014038,378.302856 658.266663,354.946564   C656.251282,353.364166 654.604553,351.803528 654.629456,348.848206   C654.747314,334.850525 654.688354,320.851349 654.714905,306.852753   C654.716125,306.209839 654.934875,305.567322 655.336304,303.371063   C682.465637,324.619019 708.929749,345.345947 735.672241,366.296326  z"/>
<path class="logo" opacity="1.000000" stroke="none" d=" M290.638977,415.673218   C285.166046,419.981781 279.978943,424.074066 274.325043,428.534607   C282.115479,434.715820 289.371918,440.509399 296.666534,446.254486   C319.962372,464.601868 343.233459,482.981201 366.619232,501.213348   C370.091980,503.920807 371.561584,506.840057 371.450562,511.331573   C371.145996,523.654358 371.364441,535.989868 371.354523,548.320374   C371.353210,549.920776 371.682526,551.599915 370.797882,553.030396   C368.768066,553.323425 367.905975,551.836121 366.801697,550.968079   C324.234802,517.507446 281.685028,484.025085 239.156204,450.516083   C228.421066,442.057800 224.918686,431.361877 228.780670,419.730469   C230.429443,414.764801 233.665298,411.066010 237.650543,407.925415   C280.306335,374.310455 322.971375,340.707153 365.656982,307.130005   C367.068054,306.020050 368.371826,304.633942 370.279022,304.289673   C371.948944,305.038300 371.437561,306.520020 371.437195,307.760162   C371.433197,320.590363 371.200195,333.424835 371.477325,346.248444   C371.571045,350.584656 370.090515,353.293274 366.770233,355.883331   C341.422302,375.656464 316.191803,395.580109 290.638977,415.673218  z"/>
<path class="logo" opacity="1.000000" stroke="none" d=" M502.763367,406.667755   C498.407471,416.071167 494.122742,425.095428 490.085114,434.228973   C488.594391,437.601196 486.785767,438.501160 483.123901,437.412079   C469.433685,433.340485 456.393951,427.781219 445.075836,419.095062   C424.872620,403.590027 416.940582,382.346405 419.316742,357.494141   C422.276733,326.536194 439.971710,306.152649 468.149902,294.920349   C494.320404,284.488342 521.386902,284.230774 548.573059,290.933350   C554.817993,292.473022 554.810120,292.853577 552.182312,298.597168   C548.096741,307.527069 543.894592,316.406738 539.998230,325.418549   C538.577332,328.704895 536.950500,329.255707 533.504028,328.320221   C516.825012,323.792877 500.204163,323.427185 484.407257,331.504608   C469.821350,338.962769 463.209167,353.167938 466.267975,368.994507   C467.900055,377.439117 473.163269,383.217102 480.172729,387.634766   C485.559448,391.029694 491.444153,393.335297 497.486542,395.281982   C500.153748,396.141266 502.763885,397.177795 505.461395,398.156158   C505.833313,401.485992 503.802612,403.736084 502.763367,406.667755  z"/>
<path class="logo" opacity="1.000000" stroke="none" d=" M573.313721,418.544891   C596.227722,428.977112 611.245361,445.470001 615.006470,470.549957   C620.809753,509.248138 602.004456,543.588257 563.378052,557.611267   C538.917236,566.491699 513.964478,567.332520 488.644226,562.462219   C483.343994,561.442810 483.170258,560.831116 485.463043,555.835022   C489.628265,546.758850 493.974915,537.759277 497.860504,528.564941   C499.337585,525.069763 501.146088,524.490601 504.705688,524.951965   C520.053406,526.941162 535.253906,527.011658 549.593628,519.786865   C563.011108,513.026733 569.502014,501.993164 569.316772,487.172607   C569.148560,473.707916 562.340942,464.221466 550.432983,458.344116   C546.413513,456.360321 542.238525,454.634308 538.006775,453.156342   C534.645386,451.982300 533.523926,450.652832 535.271118,447.028168   C540.473755,436.235138 545.417114,425.313843 550.272095,414.358643   C551.611328,411.336670 553.396912,410.920288 556.175598,412.006622   C561.752319,414.186859 567.365662,416.273285 573.313721,418.544891  z"/>


</svg>